<svg xmlns="http://www.w3.org/2000/svg" viewBox="0 0 1024 1024" width="1024" height="1024">
  <defs>
    <linearGradient id="bgGrad" x1="0%" y1="0%" x2="100%" y2="100%">
      <stop offset="0%" stop-color="#7C3AED"/>
      <stop offset="100%" stop-color="#6D28D9"/>
    </linearGradient>
    <linearGradient id="bodyGrad" x1="20%" y1="0%" x2="80%" y2="100%">
      <stop offset="0%" stop-color="#EDE9FE"/>
      <stop offset="100%" stop-color="#DDD6FE"/>
    </linearGradient>
    <linearGradient id="wingGrad" x1="20%" y1="0%" x2="80%" y2="100%">
      <stop offset="0%" stop-color="#C4B5FD"/>
      <stop offset="100%" stop-color="#A78BFA"/>
    </linearGradient>
  </defs>

  <!-- Background -->
  <rect width="1024" height="1024" rx="0" fill="url(#bgGrad)"/>

  <!-- Branch -->
  <line x1="180" y1="720" x2="840" y2="640" stroke="#4C1D95" stroke-width="24" stroke-linecap="round"/>
  <!-- Branch fork -->
  <line x1="700" y1="652" x2="790" y2="570" stroke="#4C1D95" stroke-width="18" stroke-linecap="round"/>

  <!-- Bird body - slimmer, more elongated -->
  <ellipse cx="470" cy="490" rx="175" ry="145" fill="url(#bodyGrad)" transform="rotate(-12, 470, 490)"/>

  <!-- Bird head - slightly smaller for proportion -->
  <circle cx="580" cy="350" r="105" fill="url(#bodyGrad)"/>

  <!-- Wing - sleeker -->
  <ellipse cx="400" cy="510" rx="130" ry="90" fill="url(#wingGrad)" transform="rotate(-18, 400, 510)"/>

  <!-- Tail - longer, more elegant -->
  <polygon points="260,510 150,420 175,550" fill="#EC4899"/>

  <!-- Beak - slightly longer -->
  <polygon points="680,330 750,350 680,370" fill="#EC4899"/>

  <!-- Eye -->
  <circle cx="610" cy="330" r="16" fill="#FFFFFF"/>

  <!-- Legs -->
  <line x1="470" y1="620" x2="445" y2="690" stroke="#4C1D95" stroke-width="12" stroke-linecap="round"/>
  <line x1="530" y1="615" x2="510" y2="682" stroke="#4C1D95" stroke-width="12" stroke-linecap="round"/>

  <!-- Feet gripping branch -->
  <line x1="445" y1="690" x2="418" y2="692" stroke="#4C1D95" stroke-width="9" stroke-linecap="round"/>
  <line x1="445" y1="690" x2="462" y2="696" stroke="#4C1D95" stroke-width="9" stroke-linecap="round"/>
  <line x1="510" y1="682" x2="488" y2="686" stroke="#4C1D95" stroke-width="9" stroke-linecap="round"/>
  <line x1="510" y1="682" x2="528" y2="686" stroke="#4C1D95" stroke-width="9" stroke-linecap="round"/>
</svg>
