<svg xmlns="http://www.w3.org/2000/svg" viewBox="0 0 512 512" width="512" height="512">
  <defs>
    <linearGradient id="brandGrad" x1="0%" y1="0%" x2="100%" y2="100%">
      <stop offset="0%" style="stop-color:#8B5CF6;stop-opacity:1" />
      <stop offset="100%" style="stop-color:#EC4899;stop-opacity:1" />
    </linearGradient>
    <linearGradient id="brandGradDark" x1="0%" y1="0%" x2="100%" y2="100%">
      <stop offset="0%" style="stop-color:#7C3AED;stop-opacity:1" />
      <stop offset="100%" style="stop-color:#DB2777;stop-opacity:1" />
    </linearGradient>
    <linearGradient id="brandGradLight" x1="0%" y1="0%" x2="100%" y2="100%">
      <stop offset="0%" style="stop-color:#A78BFA;stop-opacity:1" />
      <stop offset="100%" style="stop-color:#F472B6;stop-opacity:1" />
    </linearGradient>
    <linearGradient id="steamGrad" x1="0%" y1="100%" x2="0%" y2="0%">
      <stop offset="0%" style="stop-color:#A78BFA;stop-opacity:0.6" />
      <stop offset="100%" style="stop-color:#A78BFA;stop-opacity:0" />
    </linearGradient>
  </defs>

  <!-- NO background - fully transparent -->

  <!-- Coffee cup body -->
  <path d="M 175 255 L 190 365 Q 193 383, 211 383 L 331 383 Q 349 383, 352 365 L 367 255 Z" 
        fill="url(#brandGrad)" opacity="0.15"/>
  <path d="M 175 255 L 190 365 Q 193 383, 211 383 L 331 383 Q 349 383, 352 365 L 367 255 Z" 
        fill="none" stroke="url(#brandGrad)" stroke-width="8" stroke-linecap="round" stroke-linejoin="round"/>
  
  <!-- Cup handle - right side -->
  <path d="M 367 280 Q 408 280, 408 315 Q 408 348, 367 348" 
        fill="none" stroke="url(#brandGrad)" stroke-width="8" stroke-linecap="round"/>

  <!-- Coffee surface -->
  <line x1="193" y1="282" x2="349" y2="282" stroke="url(#brandGradLight)" stroke-width="3" opacity="0.35" stroke-linecap="round"/>

  <!-- Saucer -->
  <ellipse cx="271" cy="390" rx="115" ry="13" fill="none" stroke="url(#brandGrad)" stroke-width="6" opacity="0.45"/>

  <!-- Steam -->
  <path d="M 240 245 Q 234 218, 242 190 Q 250 162, 238 135" 
        fill="none" stroke="url(#steamGrad)" stroke-width="4" stroke-linecap="round" opacity="0.5"/>
  <path d="M 275 240 Q 268 208, 277 178 Q 286 148, 272 120" 
        fill="none" stroke="url(#steamGrad)" stroke-width="4" stroke-linecap="round" opacity="0.6"/>
  <path d="M 310 243 Q 306 215, 313 188 Q 320 160, 308 134" 
        fill="none" stroke="url(#steamGrad)" stroke-width="4" stroke-linecap="round" opacity="0.45"/>

  <!-- Bird - perched on LEFT rim of cup, facing right -->
  <!-- Body -->
  <ellipse cx="200" cy="222" rx="38" ry="29" fill="url(#brandGrad)" transform="rotate(10, 200, 222)"/>
  
  <!-- Head -->
  <circle cx="235" cy="195" r="21" fill="url(#brandGrad)"/>
  
  <!-- Eye -->
  <circle cx="244" cy="191" r="5.5" fill="#FFFFFF"/>
  <circle cx="245.5" cy="189.5" r="2.2" fill="#1a1a2e"/>
  
  <!-- Beak - pointing right -->
  <polygon points="256,193 275,199 256,205" fill="#FBBF24"/>
  
  <!-- Wing detail -->
  <path d="M 170 215 Q 190 198, 212 208 Q 192 212, 176 228 Z" fill="#7C3AED" opacity="0.6"/>
  <path d="M 164 223 Q 186 204, 208 216 Q 188 220, 170 236 Z" fill="#7C3AED" opacity="0.4"/>

  <!-- Tail feathers - extending left -->
  <path d="M 164 222 L 130 200 L 150 230 Z" fill="#EC4899" opacity="0.8"/>
  <path d="M 164 228 L 124 214 L 148 238 Z" fill="#DB2777" opacity="0.65"/>
  <path d="M 164 234 L 128 230 L 152 248 Z" fill="#8B5CF6" opacity="0.55"/>

  <!-- Feet gripping left cup rim -->
  <path d="M 192 248 L 189 255" stroke="#FBBF24" stroke-width="2.5" stroke-linecap="round"/>
  <path d="M 183 254 L 196 254" stroke="#FBBF24" stroke-width="2" stroke-linecap="round"/>
  <path d="M 210 245 L 212 255" stroke="#FBBF24" stroke-width="2.5" stroke-linecap="round"/>
  <path d="M 205 254 L 219 254" stroke="#FBBF24" stroke-width="2" stroke-linecap="round"/>

  <!-- PERCHED text -->
  <text x="256" y="458" text-anchor="middle" font-family="'SF Pro Display', 'Helvetica Neue', sans-serif" font-size="48" font-weight="800" letter-spacing="5" fill="url(#brandGrad)">PERCHED</text>
</svg>
